<?xml version="1.0" encoding="UTF-8"?><svg id="illustration" xmlns="http://www.w3.org/2000/svg" viewBox="0 0 3197.19 2000"><defs><style>.cls-1{fill:#241f3c;}.cls-2{fill:#312a52;}.cls-3{fill:#48c6c6;}</style></defs><g id="Machine"><g><path class="cls-3" d="M3225.41,925.56H1496c-41.11,0-74.44,33.33-74.44,74.44h0c0,41.12,33.33,74.45,74.44,74.45h1729.41v-148.89Z"/><rect class="cls-1" x="2400.35" y="1071.97" width="16.44" height="13.18"/><rect class="cls-1" x="2367.47" y="1071.97" width="16.44" height="13.18"/><rect class="cls-1" x="2432.77" y="914.85" width="16.44" height="13.18"/><rect class="cls-1" x="2433.23" y="1071.97" width="16.44" height="13.18"/><rect class="cls-1" x="2399.89" y="914.85" width="16.44" height="13.18"/><rect class="cls-1" x="2466.11" y="1071.97" width="16.44" height="13.18"/><rect class="cls-1" x="2498.99" y="1071.97" width="16.44" height="13.18"/><rect class="cls-1" x="2465.65" y="914.85" width="16.44" height="13.18"/><rect class="cls-1" x="2531.4" y="914.85" width="16.44" height="13.18"/><rect class="cls-1" x="2498.52" y="914.85" width="16.44" height="13.18"/><rect class="cls-1" x="2367.01" y="914.85" width="16.44" height="13.18"/><rect class="cls-1" x="2235.96" y="1071.97" width="16.44" height="13.18"/><rect class="cls-1" x="2531.86" y="1071.97" width="16.44" height="13.18"/><rect class="cls-1" x="2203.08" y="1071.97" width="16.44" height="13.18"/><rect class="cls-1" x="2235.5" y="914.85" width="16.44" height="13.18"/><rect class="cls-1" x="2334.59" y="1071.97" width="16.44" height="13.18"/><rect class="cls-1" x="2202.62" y="914.85" width="16.44" height="13.18"/><rect class="cls-1" x="2170.2" y="1071.97" width="16.44" height="13.18"/><rect class="cls-1" x="2334.13" y="914.85" width="16.44" height="13.18"/><rect class="cls-1" x="2926.41" y="1071.97" width="16.44" height="13.18"/><rect class="cls-1" x="2301.71" y="1071.97" width="16.44" height="13.18"/><rect class="cls-1" x="2301.25" y="914.85" width="16.44" height="13.18"/><rect class="cls-1" x="2268.84" y="1071.97" width="16.44" height="13.18"/><rect class="cls-1" x="2695.8" y="914.85" width="16.44" height="13.18"/><rect class="cls-1" x="2761.55" y="914.85" width="16.44" height="13.18"/><rect class="cls-1" x="2827.77" y="1071.97" width="16.44" height="13.18"/><rect class="cls-1" x="2794.89" y="1071.97" width="16.44" height="13.18"/><rect class="cls-1" x="2794.43" y="914.85" width="16.44" height="13.18"/><rect class="cls-1" x="2762.01" y="1071.97" width="16.44" height="13.18"/><rect class="cls-1" x="2827.31" y="914.85" width="16.44" height="13.18"/><rect class="cls-1" x="2893.53" y="1071.97" width="16.44" height="13.18"/><rect class="cls-1" x="2860.19" y="914.85" width="16.44" height="13.18"/><rect class="cls-1" x="2925.94" y="914.85" width="16.44" height="13.18"/><rect class="cls-1" x="2860.65" y="1071.97" width="16.44" height="13.18"/><rect class="cls-1" x="2893.07" y="914.85" width="16.44" height="13.18"/><rect class="cls-1" x="2728.67" y="914.85" width="16.44" height="13.18"/><rect class="cls-1" x="2630.04" y="914.85" width="16.44" height="13.18"/><rect class="cls-1" x="2597.62" y="1071.97" width="16.44" height="13.18"/><rect class="cls-1" x="2564.74" y="1071.97" width="16.44" height="13.18"/><rect class="cls-1" x="2597.16" y="914.85" width="16.44" height="13.18"/><rect class="cls-1" x="2630.5" y="1071.97" width="16.44" height="13.18"/><rect class="cls-1" x="2564.28" y="914.85" width="16.44" height="13.18"/><rect class="cls-1" x="2729.14" y="1071.97" width="16.44" height="13.18"/><rect class="cls-1" x="2696.26" y="1071.97" width="16.44" height="13.18"/><rect class="cls-1" x="2169.74" y="914.85" width="16.44" height="13.18"/><rect class="cls-1" x="2663.38" y="1071.97" width="16.44" height="13.18"/><rect class="cls-1" x="2662.92" y="914.85" width="16.44" height="13.18"/><rect class="cls-1" x="2268.38" y="914.85" width="16.44" height="13.18"/><rect class="cls-1" x="1611.27" y="1071.97" width="16.44" height="13.18"/><rect class="cls-1" x="1643.69" y="914.85" width="16.44" height="13.18"/><rect class="cls-1" x="1545.51" y="1071.97" width="16.44" height="13.18"/><rect class="cls-1" x="1578.39" y="1071.97" width="16.44" height="13.18"/><rect class="cls-1" x="1644.15" y="1071.97" width="16.44" height="13.18"/><rect class="cls-1" x="1577.93" y="914.85" width="16.44" height="13.18"/><rect class="cls-1" x="1610.81" y="914.85" width="16.44" height="13.18"/><rect class="cls-1" x="1709.9" y="1071.97" width="16.44" height="13.18"/><rect class="cls-1" x="1676.56" y="914.85" width="16.44" height="13.18"/><rect class="cls-1" x="1742.32" y="914.85" width="16.44" height="13.18"/><rect class="cls-1" x="1709.44" y="914.85" width="16.44" height="13.18"/><rect class="cls-1" x="1677.02" y="1071.97" width="16.44" height="13.18"/><rect class="cls-1" x="1512.63" y="1071.97" width="16.44" height="13.18"/><rect class="cls-1" x="2137.32" y="1071.97" width="16.44" height="13.18"/><path class="cls-1" d="M1424.43,1007.64l-13.11,1.39c.63,5.91,1.88,11.76,3.72,17.4l12.53-4.1c-1.56-4.75-2.61-9.69-3.14-14.68Z"/><path class="cls-1" d="M1466.55,934.33l-5.41-12.02c-5.4,2.43-10.57,5.44-15.36,8.95l7.79,10.63c4.05-2.97,8.42-5.51,12.98-7.57Z"/><path class="cls-1" d="M1442.42,952l-9.81-8.8c-3.96,4.42-7.47,9.26-10.43,14.39l11.42,6.58c2.5-4.34,5.47-8.44,8.83-12.17Z"/><path class="cls-1" d="M1427.49,977.9l-12.54-4.06c-1.82,5.64-3.06,11.5-3.66,17.41l13.11,1.34c.51-4.99,1.55-9.94,3.09-14.7Z"/><path class="cls-1" d="M1446,1068.9c4.8,3.5,9.98,6.49,15.39,8.91l5.37-12.04c-4.57-2.04-8.95-4.57-13.01-7.53l-7.75,10.66Z"/><rect class="cls-1" x="1545.05" y="914.85" width="16.44" height="13.18"/><rect class="cls-1" x="1512.17" y="914.85" width="16.44" height="13.18"/><rect class="cls-1" x="1742.78" y="1071.97" width="16.44" height="13.18"/><path class="cls-1" d="M1495.76,928.03l-.05-13.18c-5.95,.02-11.9,.66-17.67,1.91l2.78,12.88c4.88-1.05,9.91-1.59,14.94-1.61Z"/><path class="cls-1" d="M1481.05,1070.41l-2.73,12.89c5.78,1.23,11.73,1.85,17.68,1.85h.19v-13.18h-.19c-5.04,0-10.07-.52-14.95-1.56Z"/><path class="cls-1" d="M1422.31,1042.66c2.98,5.12,6.5,9.95,10.48,14.36l9.78-8.83c-3.36-3.73-6.35-7.81-8.86-12.14l-11.4,6.62Z"/><rect class="cls-1" x="2005.81" y="1071.97" width="16.44" height="13.18"/><rect class="cls-1" x="2038.23" y="914.85" width="16.44" height="13.18"/><rect class="cls-1" x="1972.47" y="914.85" width="16.44" height="13.18"/><rect class="cls-1" x="1972.93" y="1071.97" width="16.44" height="13.18"/><rect class="cls-1" x="2038.69" y="1071.97" width="16.44" height="13.18"/><rect class="cls-1" x="2005.35" y="914.85" width="16.44" height="13.18"/><rect class="cls-1" x="2136.86" y="914.85" width="16.44" height="13.18"/><rect class="cls-1" x="2104.44" y="1071.97" width="16.44" height="13.18"/><rect class="cls-1" x="2103.98" y="914.85" width="16.44" height="13.18"/><rect class="cls-1" x="2071.11" y="914.85" width="16.44" height="13.18"/><rect class="cls-1" x="2071.57" y="1071.97" width="16.44" height="13.18"/><rect class="cls-1" x="1907.17" y="1071.97" width="16.44" height="13.18"/><rect class="cls-1" x="1841.42" y="1071.97" width="16.44" height="13.18"/><rect class="cls-1" x="1840.96" y="914.85" width="16.44" height="13.18"/><rect class="cls-1" x="1808.54" y="1071.97" width="16.44" height="13.18"/><rect class="cls-1" x="1775.66" y="1071.97" width="16.44" height="13.18"/><rect class="cls-1" x="1808.08" y="914.85" width="16.44" height="13.18"/><rect class="cls-1" x="1939.59" y="914.85" width="16.44" height="13.18"/><rect class="cls-1" x="1873.83" y="914.85" width="16.44" height="13.18"/><rect class="cls-1" x="1940.05" y="1071.97" width="16.44" height="13.18"/><rect class="cls-1" x="1775.2" y="914.85" width="16.44" height="13.18"/><rect class="cls-1" x="1874.29" y="1071.97" width="16.44" height="13.18"/><rect class="cls-1" x="1906.71" y="914.85" width="16.44" height="13.18"/><rect class="cls-1" x="3024.58" y="914.85" width="16.44" height="13.18"/><rect class="cls-1" x="3156.09" y="914.85" width="16.44" height="13.18"/><rect class="cls-1" x="3188.97" y="914.85" width="16.44" height="13.18"/><rect class="cls-1" x="3156.56" y="1071.97" width="16.44" height="13.18"/><rect class="cls-1" x="2958.82" y="914.85" width="16.44" height="13.18"/><rect class="cls-1" x="3025.04" y="1071.97" width="16.44" height="13.18"/><rect class="cls-1" x="2992.16" y="1071.97" width="16.44" height="13.18"/><rect class="cls-1" x="2991.7" y="914.85" width="16.44" height="13.18"/><rect class="cls-1" x="2959.29" y="1071.97" width="16.44" height="13.18"/><rect class="cls-1" x="3090.8" y="1071.97" width="16.44" height="13.18"/><rect class="cls-1" x="3123.68" y="1071.97" width="16.44" height="13.18"/><rect class="cls-1" x="3123.22" y="914.85" width="16.44" height="13.18"/><rect class="cls-1" x="3057.46" y="914.85" width="16.44" height="13.18"/><rect class="cls-1" x="3057.92" y="1071.97" width="16.44" height="13.18"/><rect class="cls-1" x="3090.34" y="914.85" width="16.44" height="13.18"/><rect class="cls-1" x="3189.43" y="1071.97" width="16.44" height="13.18"/><path class="cls-1" d="M3225.41,1067.85H1496c-37.41,0-67.85-30.44-67.85-67.85s30.44-67.85,67.85-67.85h1729.41v-13.18H1496c-44.68,0-81.04,36.35-81.04,81.04s36.35,81.04,81.04,81.04h1729.41v-13.18Z"/><path class="cls-1" d="M1594.83,1067.85h-115.27c-37.41,0-67.85-30.44-67.85-67.85s30.44-67.85,67.85-67.85h1729.41v-13.18H1479.56c-44.68,0-81.04,36.35-81.04,81.04s36.35,81.04,81.04,81.04h1729.41v-13.18H1594.83"/><path class="cls-2" d="M1474.94,969.31c-16.13,13.98-17.86,38.4-3.88,54.52,13.98,16.13,38.4,17.87,54.52,3.88,16.13-13.99,17.86-38.4,3.88-54.53-13.98-16.13-38.4-17.87-54.53-3.88Zm40.47,46.67c-9.64,8.36-24.24,7.32-32.6-2.32-8.36-9.65-7.33-24.24,2.32-32.6,9.65-8.36,24.24-7.33,32.61,2.32,8.36,9.65,7.33,24.24-2.32,32.61Z"/><path class="cls-2" d="M1878.23,969.31c-16.13,13.98-17.86,38.4-3.88,54.52,13.98,16.13,38.4,17.87,54.52,3.88,16.13-13.99,17.86-38.4,3.88-54.53-13.98-16.13-38.4-17.87-54.53-3.88Zm40.47,46.67c-9.64,8.36-24.24,7.32-32.6-2.32-8.36-9.65-7.33-24.24,2.32-32.6,9.65-8.36,24.24-7.33,32.61,2.32,8.36,9.65,7.33,24.24-2.32,32.61Z"/><path class="cls-2" d="M2281.52,969.31c-16.13,13.98-17.86,38.4-3.88,54.52,13.98,16.13,38.4,17.87,54.52,3.88,16.13-13.99,17.86-38.4,3.88-54.53-13.98-16.13-38.4-17.87-54.53-3.88Zm40.47,46.67c-9.64,8.36-24.24,7.32-32.6-2.32-8.36-9.65-7.33-24.24,2.32-32.6,9.65-8.36,24.24-7.33,32.61,2.32,8.36,9.65,7.33,24.24-2.32,32.61Z"/><path class="cls-2" d="M2684.81,969.31c-16.13,13.98-17.86,38.4-3.88,54.52,13.98,16.13,38.4,17.87,54.52,3.88,16.13-13.99,17.86-38.4,3.88-54.53-13.98-16.13-38.4-17.87-54.53-3.88Zm40.47,46.67c-9.64,8.36-24.24,7.32-32.6-2.32-8.36-9.65-7.33-24.24,2.32-32.6,9.65-8.36,24.24-7.33,32.61,2.32,8.36,9.65,7.33,24.24-2.32,32.61Z"/><path class="cls-2" d="M3088.1,969.31c-16.13,13.98-17.86,38.4-3.88,54.52,13.98,16.13,38.4,17.87,54.52,3.88,16.13-13.99,17.86-38.4,3.88-54.53-13.98-16.13-38.4-17.87-54.53-3.88Zm40.47,46.67c-9.64,8.36-24.24,7.32-32.6-2.32-8.36-9.65-7.33-24.24,2.32-32.6,9.65-8.36,24.24-7.33,32.61,2.32,8.36,9.65,7.33,24.24-2.32,32.61Z"/></g></g><g id="Machine-2"><g><path class="cls-3" d="M1662.14,925.95H-67.27c-41.11,0-74.44,33.33-74.44,74.44h0c0,41.12,33.33,74.45,74.44,74.45H1662.14v-148.89Z"/><rect class="cls-1" x="837.08" y="1072.37" width="16.44" height="13.18"/><rect class="cls-1" x="804.2" y="1072.37" width="16.44" height="13.18"/><rect class="cls-1" x="869.5" y="915.24" width="16.44" height="13.18"/><rect class="cls-1" x="869.96" y="1072.37" width="16.44" height="13.18"/><rect class="cls-1" x="836.62" y="915.24" width="16.44" height="13.18"/><rect class="cls-1" x="902.84" y="1072.37" width="16.44" height="13.18"/><rect class="cls-1" x="935.72" y="1072.37" width="16.44" height="13.18"/><rect class="cls-1" x="902.38" y="915.24" width="16.44" height="13.18"/><rect class="cls-1" x="968.13" y="915.24" width="16.44" height="13.18"/><rect class="cls-1" x="935.25" y="915.24" width="16.44" height="13.18"/><rect class="cls-1" x="803.74" y="915.24" width="16.44" height="13.18"/><rect class="cls-1" x="672.69" y="1072.37" width="16.44" height="13.18"/><rect class="cls-1" x="968.59" y="1072.37" width="16.44" height="13.18"/><rect class="cls-1" x="639.81" y="1072.37" width="16.44" height="13.18"/><rect class="cls-1" x="672.23" y="915.24" width="16.44" height="13.18"/><rect class="cls-1" x="771.32" y="1072.37" width="16.44" height="13.18"/><rect class="cls-1" x="639.35" y="915.24" width="16.44" height="13.18"/><rect class="cls-1" x="606.93" y="1072.37" width="16.44" height="13.18"/><rect class="cls-1" x="770.86" y="915.24" width="16.44" height="13.18"/><rect class="cls-1" x="1363.14" y="1072.37" width="16.44" height="13.18"/><rect class="cls-1" x="738.44" y="1072.37" width="16.44" height="13.18"/><rect class="cls-1" x="737.98" y="915.24" width="16.44" height="13.18"/><rect class="cls-1" x="705.57" y="1072.37" width="16.44" height="13.18"/><rect class="cls-1" x="1132.53" y="915.24" width="16.44" height="13.18"/><rect class="cls-1" x="1198.28" y="915.24" width="16.44" height="13.18"/><rect class="cls-1" x="1264.5" y="1072.37" width="16.44" height="13.18"/><rect class="cls-1" x="1231.62" y="1072.37" width="16.44" height="13.18"/><rect class="cls-1" x="1231.16" y="915.24" width="16.44" height="13.18"/><rect class="cls-1" x="1198.74" y="1072.37" width="16.44" height="13.18"/><rect class="cls-1" x="1264.04" y="915.24" width="16.44" height="13.18"/><rect class="cls-1" x="1330.26" y="1072.37" width="16.44" height="13.18"/><rect class="cls-1" x="1296.92" y="915.24" width="16.44" height="13.18"/><rect class="cls-1" x="1362.67" y="915.24" width="16.44" height="13.18"/><rect class="cls-1" x="1297.38" y="1072.37" width="16.44" height="13.18"/><rect class="cls-1" x="1329.8" y="915.24" width="16.44" height="13.18"/><rect class="cls-1" x="1165.4" y="915.24" width="16.44" height="13.18"/><rect class="cls-1" x="1066.77" y="915.24" width="16.44" height="13.18"/><rect class="cls-1" x="1034.35" y="1072.37" width="16.44" height="13.18"/><rect class="cls-1" x="1001.47" y="1072.37" width="16.44" height="13.18"/><rect class="cls-1" x="1033.89" y="915.24" width="16.44" height="13.18"/><rect class="cls-1" x="1067.23" y="1072.37" width="16.44" height="13.18"/><rect class="cls-1" x="1001.01" y="915.24" width="16.44" height="13.18"/><rect class="cls-1" x="1165.87" y="1072.37" width="16.44" height="13.18"/><rect class="cls-1" x="1132.99" y="1072.37" width="16.44" height="13.18"/><rect class="cls-1" x="606.47" y="915.24" width="16.44" height="13.18"/><rect class="cls-1" x="1100.11" y="1072.37" width="16.44" height="13.18"/><rect class="cls-1" x="1099.65" y="915.24" width="16.44" height="13.18"/><rect class="cls-1" x="705.11" y="915.24" width="16.44" height="13.18"/><rect class="cls-1" x="48" y="1072.37" width="16.44" height="13.18"/><rect class="cls-1" x="80.42" y="915.24" width="16.44" height="13.18"/><rect class="cls-1" x="15.12" y="1072.37" width="16.44" height="13.18"/><rect class="cls-1" x="80.88" y="1072.37" width="16.44" height="13.18"/><rect class="cls-1" x="14.66" y="915.24" width="16.44" height="13.18"/><rect class="cls-1" x="47.54" y="915.24" width="16.44" height="13.18"/><rect class="cls-1" x="146.63" y="1072.37" width="16.44" height="13.18"/><rect class="cls-1" x="113.29" y="915.24" width="16.44" height="13.18"/><rect class="cls-1" x="179.05" y="915.24" width="16.44" height="13.18"/><rect class="cls-1" x="146.17" y="915.24" width="16.44" height="13.18"/><rect class="cls-1" x="113.75" y="1072.37" width="16.44" height="13.18"/><rect class="cls-1" x="574.05" y="1072.37" width="16.44" height="13.18"/><rect class="cls-1" x="179.51" y="1072.37" width="16.44" height="13.18"/><rect class="cls-1" x="442.54" y="1072.37" width="16.44" height="13.18"/><rect class="cls-1" x="474.96" y="915.24" width="16.44" height="13.18"/><rect class="cls-1" x="409.2" y="915.24" width="16.44" height="13.18"/><rect class="cls-1" x="409.66" y="1072.37" width="16.44" height="13.18"/><rect class="cls-1" x="475.42" y="1072.37" width="16.44" height="13.18"/><rect class="cls-1" x="442.08" y="915.24" width="16.44" height="13.18"/><rect class="cls-1" x="573.59" y="915.24" width="16.44" height="13.18"/><rect class="cls-1" x="541.17" y="1072.37" width="16.44" height="13.18"/><rect class="cls-1" x="540.71" y="915.24" width="16.44" height="13.18"/><rect class="cls-1" x="507.83" y="915.24" width="16.44" height="13.18"/><rect class="cls-1" x="508.3" y="1072.37" width="16.44" height="13.18"/><rect class="cls-1" x="343.9" y="1072.37" width="16.44" height="13.18"/><rect class="cls-1" x="278.15" y="1072.37" width="16.44" height="13.18"/><rect class="cls-1" x="277.69" y="915.24" width="16.44" height="13.18"/><rect class="cls-1" x="245.27" y="1072.37" width="16.44" height="13.18"/><rect class="cls-1" x="212.39" y="1072.37" width="16.44" height="13.18"/><rect class="cls-1" x="244.81" y="915.24" width="16.44" height="13.18"/><rect class="cls-1" x="376.32" y="915.24" width="16.44" height="13.18"/><rect class="cls-1" x="310.56" y="915.24" width="16.44" height="13.18"/><rect class="cls-1" x="376.78" y="1072.37" width="16.44" height="13.18"/><rect class="cls-1" x="211.93" y="915.24" width="16.44" height="13.18"/><rect class="cls-1" x="311.02" y="1072.37" width="16.44" height="13.18"/><rect class="cls-1" x="343.44" y="915.24" width="16.44" height="13.18"/><rect class="cls-1" x="1461.31" y="915.24" width="16.44" height="13.18"/><rect class="cls-1" x="1658.58" y="915.24" width="3.55" height="13.18"/><rect class="cls-1" x="1592.82" y="915.24" width="16.44" height="13.18"/><rect class="cls-1" x="1659.04" y="1072.37" width="3.09" height="13.18"/><rect class="cls-1" x="1625.7" y="915.24" width="16.44" height="13.18"/><rect class="cls-1" x="1593.29" y="1072.37" width="16.44" height="13.18"/><rect class="cls-1" x="1395.55" y="915.24" width="16.44" height="13.18"/><rect class="cls-1" x="1461.77" y="1072.37" width="16.44" height="13.18"/><rect class="cls-1" x="1428.89" y="1072.37" width="16.44" height="13.18"/><rect class="cls-1" x="1428.43" y="915.24" width="16.44" height="13.18"/><rect class="cls-1" x="1396.01" y="1072.37" width="16.44" height="13.18"/><rect class="cls-1" x="1527.53" y="1072.37" width="16.44" height="13.18"/><rect class="cls-1" x="1560.41" y="1072.37" width="16.44" height="13.18"/><rect class="cls-1" x="1559.95" y="915.24" width="16.44" height="13.18"/><rect class="cls-1" x="1494.19" y="915.24" width="16.44" height="13.18"/><rect class="cls-1" x="1494.65" y="1072.37" width="16.44" height="13.18"/><rect class="cls-1" x="1527.07" y="915.24" width="16.44" height="13.18"/><rect class="cls-1" x="1626.16" y="1072.37" width="16.44" height="13.18"/><path class="cls-1" d="M1662.14,1068.25H-67.27c-37.41,0-67.85-30.44-67.85-67.85s30.44-67.85,67.85-67.85H1662.14v-13.18H-67.27c-44.68,0-81.04,36.35-81.04,81.04s36.35,81.04,81.04,81.04H1662.14v-13.18Z"/><path class="cls-1" d="M31.56,1068.25H-83.71c-37.41,0-67.85-30.44-67.85-67.85s30.44-67.85,67.85-67.85H1645.7v-13.18H-83.71c-44.68,0-81.04,36.35-81.04,81.04s36.35,81.04,81.04,81.04H1645.7v-13.18H31.56"/><path class="cls-2" d="M314.96,969.71c-16.13,13.98-17.86,38.4-3.88,54.52,13.98,16.13,38.4,17.87,54.52,3.88,16.13-13.99,17.86-38.4,3.88-54.53-13.98-16.13-38.4-17.87-54.53-3.88Zm40.47,46.67c-9.64,8.36-24.24,7.32-32.6-2.32-8.36-9.65-7.33-24.24,2.32-32.6,9.65-8.36,24.24-7.33,32.61,2.32,8.36,9.65,7.33,24.24-2.32,32.61Z"/><path class="cls-2" d="M718.25,969.71c-16.13,13.98-17.86,38.4-3.88,54.52,13.98,16.13,38.4,17.87,54.52,3.88,16.13-13.99,17.86-38.4,3.88-54.53-13.98-16.13-38.4-17.87-54.53-3.88Zm40.47,46.67c-9.64,8.36-24.24,7.32-32.6-2.32-8.36-9.65-7.33-24.24,2.32-32.6,9.65-8.36,24.24-7.33,32.61,2.32,8.36,9.65,7.33,24.24-2.32,32.61Z"/><path class="cls-2" d="M1121.54,969.71c-16.13,13.98-17.86,38.4-3.88,54.52,13.98,16.13,38.4,17.87,54.52,3.88,16.13-13.99,17.86-38.4,3.88-54.53-13.98-16.13-38.4-17.87-54.53-3.88Zm40.47,46.67c-9.64,8.36-24.24,7.32-32.6-2.32-8.36-9.65-7.33-24.24,2.32-32.6,9.65-8.36,24.24-7.33,32.61,2.32,8.36,9.65,7.33,24.24-2.32,32.61Z"/><path class="cls-2" d="M1524.83,969.71c-16.13,13.98-17.86,38.4-3.88,54.52,13.98,16.13,38.4,17.87,54.52,3.88,16.13-13.99,17.86-38.4,3.88-54.53-13.98-16.13-38.4-17.87-54.53-3.88Zm40.47,46.67c-9.64,8.36-24.24,7.32-32.6-2.32-8.36-9.65-7.33-24.24,2.32-32.6,9.65-8.36,24.24-7.33,32.61,2.32,8.36,9.65,7.33,24.24-2.32,32.61Z"/></g></g></svg>