<?xml version="1.0" encoding="utf-8"?>
<!-- Generator: Adobe Illustrator 26.3.1, SVG Export Plug-In . SVG Version: 6.00 Build 0)  -->
<svg version="1.1" id="Ebene_2_00000110429808453370511730000010374130337645342608_"
	 xmlns="http://www.w3.org/2000/svg" xmlns:xlink="http://www.w3.org/1999/xlink" x="0px" y="0px" viewBox="0 0 27.3 22.3"
	 style="enable-background:new 0 0 27.3 22.3;" xml:space="preserve">
<style type="text/css">
	.st0{fill-rule:evenodd;clip-rule:evenodd;fill:#C41C06;}
</style>
<g id="_3">
	<path class="st0" d="M23.9,13.8H11C8.8,9.2,6.9,4.5,4.8,0H0v1.7h3.7c1.9,4.6,4,9.1,6,13.6h14.2C24,14.9,23.9,14.2,23.9,13.8
		L23.9,13.8z M20.8,17.1c-1,0.2-1.8,1.1-1.9,2c-0.3,1.6,0.8,2.9,1.9,3.1c2.1,0.3,3.5-1.4,3.1-3.1C23.7,17.7,22.3,16.9,20.8,17.1
		L20.8,17.1z M12.3,17.1c-1,0.2-1.8,1.1-2.1,2c-0.2,1.6,0.9,2.9,2.1,3.1c2,0.3,3.3-1.4,3.1-3.1C15.2,17.7,13.8,16.9,12.3,17.1
		L12.3,17.1z M11.9,11.9H24l3.3-8.5H8.6l0.5,1.7h3.2L13,6.9H9.9l0.6,1.6h3.2l0.6,1.8h-3.1L11.9,11.9L11.9,11.9z"/>
</g>
</svg>
