<?xml version="1.0" encoding="UTF-8"?><svg id="Ebene_2" xmlns="http://www.w3.org/2000/svg" viewBox="0 0 27.34 18.92"><defs><style>.cls-1{fill:#595959;fill-rule:evenodd;}</style></defs><g id="_3"><path class="cls-1" d="M27.34,.86V16.99l-15.82,1.93h.11V1.72l4.52-.21,.1,4.62,.54-.87,.64,.87,.33-.87,.54,.75,.32-.86,.54,.86,.33-.96,.43,.86V1.29l7.43-.43Zm-15.92,.87V18.81L0,16.77V.97l11.41,.75ZM0,.75L15.29,0l12.05,.65h-.1l-15.72,.86L.21,.75h-.21Zm14.64,15.48c0,.11-.1,.21-.21,.21-.1,0-.1-.1-.1-.21v-.1c0-.11-.11-.11-.11-.11-.1,0-.21,.11-.21,.11v.21c0,.21,.21,.33,.43,.33s.43-.22,.43-.44v-1.18c.54,0,.87-.1,1.51-.1-.11-.76-.75-1.18-1.51-1.18v-.11c0-.1-.1-.1-.1-.1-.11,0-.11,.1-.11,.1v.21c-.75,.11-1.29,.64-1.4,1.4,.54-.1,.87-.1,1.4-.21v1.18h0Zm4.96-1.4v.97h-.75v.21c.75,0,1.07-.1,1.72-.1v-.22h-.75v-.86c.53-.1,.86-.53,.86-1.07v-.75c-.75,.11-1.18,.11-1.94,.21v.75c0,.53,.33,.86,.87,.86h0Zm-1.72-1.94h0c0,1.41,0,2.15-.11,3.65,1.62-.1,2.37-.21,3.88-.42v-3.55c-1.51,.11-2.25,.21-3.76,.32h0Zm3.65,3.23h0c-1.4,.1-2.14,.21-3.65,.32,.1-1.4,.1-2.14,.1-3.44,1.41-.21,2.15-.21,3.55-.32v3.44h0Zm2.16-.97h.21v-1.61h.53c-.21-.33-.43-.54-.64-.97-.21,.43-.32,.64-.54,1.07h.44v1.51h0Zm1.61-.11h.21v-1.6h.54c-.21-.44-.44-.65-.65-.98-.21,.43-.32,.65-.53,1.08,.21-.1,.32-.1,.43-.1v1.6h0Zm.75,.11h0c-1.08,.1-1.72,.21-2.8,.33v.21c1.08-.1,1.72-.21,2.8-.33v-.21h0Zm-3.34-2.69h0c0,1.4,0,2.04,.1,3.55,1.4-.1,2.15-.21,3.66-.33v-3.65c-1.51,.22-2.26,.22-3.76,.43h0Zm3.65,3.12h0c-1.4,.1-2.04,.21-3.55,.33v-3.45c1.4-.1,2.15-.1,3.55-.33v3.45h0Zm-13.56-2.26h0v3.77c1.51-.11,2.25-.22,3.88-.43v-3.66c-1.51,.11-2.26,.21-3.88,.32h0Zm3.76,3.34h0c-1.51,.1-2.26,.21-3.65,.32v-3.54c1.5-.12,2.14-.22,3.65-.33v3.55h0Z"/></g></svg>