<?xml version="1.0" encoding="UTF-8"?><svg id="Ebene_2" xmlns="http://www.w3.org/2000/svg" viewBox="0 0 27.34 22.28"><defs><style>.cls-1{fill:#595959;fill-rule:evenodd;}</style></defs><g id="_3"><path class="cls-1" d="M23.89,13.75H10.98C8.82,9.24,6.88,4.51,4.84,0H0V1.71H3.66c1.94,4.63,3.98,9.14,6.03,13.65h14.2c.11-.43,0-1.18,0-1.61h0Zm-3.12,3.33c-.97,.22-1.83,1.08-1.94,2.05-.32,1.61,.75,2.91,1.94,3.11,2.15,.33,3.45-1.39,3.12-3.11-.21-1.4-1.61-2.25-3.12-2.05h0Zm-8.5,0c-.97,.22-1.83,1.08-2.05,2.05-.21,1.61,.87,2.91,2.05,3.11,2.04,.33,3.34-1.39,3.12-3.11-.21-1.4-1.61-2.25-3.12-2.05h0Zm-.33-5.15h12.06l3.34-8.49H8.61l.54,1.72h3.22l.65,1.71h-3.12l.64,1.61h3.23l.64,1.83h-3.12l.64,1.61Z"/></g></svg>